<svg xmlns="http://www.w3.org/2000/svg" viewBox="0 0 81.2 81.2"><path d="M81,23.9c-0.2-4.3-0.9-7.3-1.9-9.9c-1-2.7-2.4-4.9-4.7-7.2c-2.3-2.3-4.5-3.6-7.2-4.7c-2.6-1-5.5-1.7-9.9-1.9 C53,0,51.6,0,40.6,0c-11,0-12.4,0-16.7,0.2c-4.3,0.2-7.3,0.9-9.9,1.9c-2.7,1-4.9,2.4-7.2,4.7C4.6,9.1,3.2,11.3,2.1,14 c-1,2.6-1.7,5.5-1.9,9.9C0,28.2,0,29.6,0,40.6c0,11,0,12.4,0.2,16.7c0.2,4.3,0.9,7.3,1.9,9.9c1,2.7,2.4,4.9,4.7,7.2 c2.3,2.3,4.5,3.6,7.2,4.7c2.6,1,5.5,1.7,9.9,1.9c4.3,0.2,5.7,0.2,16.7,0.2c11,0,12.4,0,16.7-0.2c4.3-0.2,7.3-0.9,9.9-1.9 c2.7-1,4.9-2.4,7.2-4.7c2.3-2.3,3.6-4.5,4.7-7.2c1-2.6,1.7-5.5,1.9-9.9c0.2-4.3,0.2-5.7,0.2-16.7C81.2,29.6,81.2,28.2,81,23.9z  M73.6,57c-0.2,4-0.8,6.1-1.4,7.5c-0.7,1.9-1.6,3.2-3,4.7c-1.4,1.4-2.8,2.3-4.7,3c-1.4,0.6-3.6,1.2-7.5,1.4 c-4.3,0.2-5.6,0.2-16.4,0.2c-10.8,0-12.1,0-16.4-0.2c-4-0.2-6.1-0.8-7.5-1.4c-1.9-0.7-3.2-1.6-4.7-3c-1.4-1.4-2.3-2.8-3-4.7 C8.4,63.1,7.7,61,7.6,57c-0.2-4.3-0.2-5.6-0.2-16.4c0-10.8,0-12.1,0.2-16.4c0.2-4,0.8-6.1,1.4-7.5c0.7-1.9,1.6-3.2,3-4.7 c1.4-1.4,2.8-2.3,4.7-3c1.4-0.6,3.6-1.2,7.5-1.4c4.3-0.2,5.6-0.2,16.4-0.2c10.8,0,12.1,0,16.4,0.2c4,0.2,6.1,0.8,7.5,1.4 c1.9,0.7,3.2,1.6,4.7,3c1.4,1.4,2.3,2.8,3,4.7c0.6,1.4,1.2,3.6,1.4,7.5c0.2,4.3,0.2,5.6,0.2,16.4C73.9,51.4,73.8,52.7,73.6,57z"/><path d="M40.6,19.8c-11.5,0-20.8,9.3-20.8,20.8c0,11.5,9.3,20.8,20.8,20.8c11.5,0,20.8-9.3,20.8-20.8 C61.4,29.1,52.1,19.8,40.6,19.8z M40.6,54.1c-7.5,0-13.5-6.1-13.5-13.5c0-7.5,6.1-13.5,13.5-13.5c7.5,0,13.5,6.1,13.5,13.5 C54.1,48.1,48.1,54.1,40.6,54.1z"/><circle cx="62.3" cy="18.9" r="4.9"/></svg>