<svg xmlns="http://www.w3.org/2000/svg" viewBox="0 0 512 512"><path d="M375.3,197.7L375.3,197.7c-0.6-11.5-2.2-20.4-5-27.1c-2.5-6.7-5.7-11.8-10.9-17c-5.9-5.5-10.5-8.4-16.9-10.9 c-4.1-1.8-11.3-4.3-27.1-5c-15.4-0.7-20.4-0.7-58.8-0.7s-43.4,0-58.8,0.7c-11.5,0.6-20.4,2.2-27,5c-6.7,2.5-11.8,5.7-17,10.9 c-5.5,5.9-8.4,10.5-10.9,16.9c-1.8,4.1-4.3,11.3-5,27.1c-0.7,15.4-0.7,20.4-0.7,58.8s0,43.4,0.7,58.8c0.4,14.3,2.9,22,5,27.1 c2.5,6.7,5.7,11.8,10.9,17c5.9,5.5,10.5,8.4,16.9,10.9c4.1,1.8,11.3,4.3,27.1,5c15.4,0.7,20.4,0.7,58.8,0.7s43.4,0,58.8-0.7 c11.5-0.6,20.4-2.2,27-5c6.7-2.5,11.8-5.7,17-10.9c5.5-5.9,8.4-10.5,10.9-16.9c1.8-4.1,4.3-11.3,5-27.1l0.2-3.4 c0.6-13.1,0.9-19.7,0.5-55.5C376,218,376,213.1,375.3,197.7z M351.4,178.7c0,9.4-7.7,17.1-17.1,17.1c-9.4,0-17.1-7.7-17.1-17.1 c0-9.4,7.7-17.1,17.1-17.1C343.7,161.6,351.4,169.3,351.4,178.7z M256.5,330.6c-40.9,0-74.1-33.2-74.1-74.1 c0-40.9,33.2-74.1,74.1-74.1c40.9,0,74.1,33.2,74.1,74.1C330.6,297.4,297.4,330.6,256.5,330.6z"/><ellipse transform="matrix(0.9732 -0.2298 0.2298 0.9732 -52.0702 65.7936)" cx="256.5" cy="256.5" rx="48.9" ry="48.9"/><path d="M437.9,75.1C389.4,26.7,325,0,256.5,0C188,0,123.6,26.7,75.1,75.1S0,188,0,256.5C0,325,26.7,389.4,75.1,437.9 C123.6,486.3,188,513,256.5,513c68.5,0,132.9-26.7,181.4-75.1C486.3,389.4,513,325,513,256.5C513,188,486.3,123.6,437.9,75.1z  M400.8,316.4L400.8,316.4c-0.6,14.1-2.7,24.7-6.8,35.3c-4.2,10.5-9.2,18.2-16.7,25.6c-8,8-16,13.2-25.6,16.7 c-10.4,4-21.3,6.1-35.3,6.8c-15.4,0.7-20.5,0.7-59.9,0.7c-39.3,0-44.4,0-59.9-0.7c-14.1-0.6-24.7-2.6-35.3-6.8 c-10.5-4.2-18.2-9.2-25.6-16.7c-8.1-8.1-13.2-16-16.7-25.6c-4-10.4-6.1-21.3-6.8-35.3c-0.7-15.4-0.7-20.5-0.7-59.9 c0-39.3,0-44.4,0.7-59.9c0.6-14.1,2.6-24.7,6.8-35.3c3.9-9.7,9-17.6,16.7-25.6c8.1-8.1,16-13.2,25.6-16.7c10.4-4,21.3-6.1,35.3-6.8 c15.4-0.7,20.5-0.7,59.9-0.7c39.3,0,44.4,0,59.9,0.7c14.1,0.6,24.7,2.6,35.3,6.8c10.5,4.2,18.1,9.2,25.6,16.7 c8,8.1,13.2,16,16.7,25.6c4,10.4,6.1,21.3,6.8,35.3c0.7,15.4,0.7,20.5,0.7,59.9C401.5,295.8,401.5,300.9,400.8,316.4z"/></svg>