<svg xmlns="http://www.w3.org/2000/svg" viewBox="0 0 512 512"><ellipse transform="matrix(0.9732 -0.2298 0.2298 0.9732 -51.9685 65.665)" cx="256" cy="256" rx="48.4" ry="48.4"/><path d="M374.3,197.2c-0.7-14-2.9-21.9-5-26.9c-2.5-6.8-5.7-11.8-10.8-16.8c-5.4-5-10-8.2-16.8-10.8c-5-2.2-12.5-4.3-26.9-5 c-15.4-0.7-20.1-0.7-58.8-0.7c-38.7,0-43.4,0-58.8,0.7c-14,0.7-21.9,2.9-26.9,5c-6.8,2.5-11.8,5.7-16.8,10.8 c-5,5.4-8.2,10-10.8,16.8c-2.2,5-4.3,12.5-5,26.9c-0.7,15.4-0.7,20.1-0.7,58.8c0,38.7,0,43.4,0.7,58.8c0.4,14.3,2.9,21.9,5,26.9 c2.5,6.8,5.7,11.8,10.8,16.8c5.4,5,10,8.2,16.8,10.8c5,2.2,12.5,4.3,26.9,5c15.4,0.7,20.1,0.7,58.8,0.7c38.7,0,43.4,0,58.8-0.7 c14-0.7,21.9-2.9,26.9-5c6.8-2.5,11.8-5.7,16.8-10.8c5-5.4,8.2-10,10.8-16.8c2.2-5,4.3-12.5,5-26.9c0.7-15.4,1.1-20.1,0.7-58.8 C375,217.3,375,212.6,374.3,197.2z M256,330.6c-41.2,0-74.6-33.3-74.6-74.6c0-41.2,33.3-74.6,74.6-74.6c41.2,0,74.6,33.3,74.6,74.6 C330.6,297.2,297.2,330.6,256,330.6z M333.8,195.8c-9.7,0-17.6-7.9-17.6-17.6c0-9.7,7.9-17.6,17.6-17.6s17.6,7.9,17.6,17.6 C351.3,187.9,343.5,195.8,333.8,195.8z"/><path d="M446.7,0H65.3C29.2,0,0,29.2,0,65.3v381.5c0,36,29.2,65.3,65.3,65.3h381.5c36,0,65.3-29.2,65.3-65.3V65.3 C512,29.2,482.8,0,446.7,0z M400.8,315.9c-0.7,15.8-3.2,26.2-6.8,35.5c-3.9,9.7-8.6,17.6-16.8,25.8c-8.2,8.2-16.1,13.3-25.8,16.8 c-9.3,3.6-20.1,6.1-35.5,6.8s-20.4,0.7-59.9,0.7s-44.4,0-59.9-0.7c-15.8-0.7-26.2-3.2-35.5-6.8c-9.7-3.9-17.6-8.6-25.8-16.8 c-8.2-8.2-13.3-16.1-16.8-25.8c-3.6-9.3-6.1-20.1-6.8-35.5s-0.7-20.4-0.7-59.9s0-44.4,0.7-59.9c0.7-15.8,3.2-26.2,6.8-35.5 c3.9-9.7,9-17.6,16.8-25.8c8.2-8.2,16.1-13.3,25.8-16.8c9.3-3.6,20.1-6.1,35.5-6.8c15.4-0.7,20.4-0.7,59.9-0.7s44.4,0,59.9,0.7 c15.8,0.7,26.2,3.2,35.5,6.8c9.7,3.9,17.6,8.6,25.8,16.8c8.2,8.2,13.3,16.1,16.8,25.8c3.6,9.3,6.1,20.1,6.8,35.5 c0.7,15.4,0.7,20.4,0.7,59.9C401.5,295.4,401.5,300.4,400.8,315.9z"/></svg>